Coordinates

Units are S.I. units (second, meters, Newtons, ...)
If the header above contains a line with 'inDegrees', this indicates whether rotational values are in degrees (yes) or radians (no).

inDegrees=no
nColumns=21
nRows=27
DataType=double
version=3
OpenSimVersion=4.6-2026-03-31-d6972f9e6
endheader
time	/jointset/ground_pelvis/pelvis_tilt/value	/jointset/ground_pelvis/pelvis_list/value	/jointset/ground_pelvis/pelvis_rotation/value	/jointset/ground_pelvis/pelvis_tx/value	/jointset/ground_pelvis/pelvis_ty/value	/jointset/ground_pelvis/pelvis_tz/value	/jointset/hip_r/hip_flexion_r/value	/jointset/hip_r/hip_adduction_r/value	/jointset/hip_r/hip_rotation_r/value	/jointset/walker_knee_r/knee_angle_r/value	/jointset/patellofemoral_r/knee_angle_r_beta/value	/jointset/ankle_r/ankle_angle_r/value	/jointset/subtalar_r/subtalar_angle_r/value	/jointset/hip_l/hip_flexion_l/value	/jointset/hip_l/hip_adduction_l/value	/jointset/hip_l/hip_rotation_l/value	/jointset/walker_knee_l/knee_angle_l/value	/jointset/patellofemoral_l/knee_angle_l_beta/value	/jointset/ankle_l/ankle_angle_l/value	/jointset/subtalar_l/subtalar_angle_l/value
139.996	-0.05758540398681299	0.1205710675150711	0.1102062342752253	1.003430910000074	0.9834480600000581	-0.3636704100000233	-0.09732882382247718	-0.2105300615946167	-0.1890574501657198	1.240120576835523	1.24012058000008	-0.549005712241333	-0.5614697559469793	0.4353911895780377	0.1982987444547568	-0.00884382400075959	0.5909637114243484	0.5909637100000381	0.1311385158532482	-0.346340143351576
140	-0.06135579736983641	0.126063642916891	0.1169800689425652	1.002196132558351	0.980951823793762	-0.3638565018176457	-0.07184629034472953	-0.2221604721669018	-0.1862269125593457	1.274278598859707	1.27427860152694	-0.5255970273581444	-0.5543812146702699	0.439415188566131	0.2071792693072141	-0.001682585044846978	0.6148903064490422	0.6148903054533224	0.1413428915950802	-0.3517206511313867
140.004	-0.06509962458338113	0.1314484741469857	0.1236101899969331	1.000964075994276	0.9784785576613959	-0.3640308233132623	-0.04631417641496968	-0.2336103479594729	-0.1831978044513785	1.308160649328851	1.308160651515903	-0.5022809763617309	-0.5472604453411213	0.4432523756919321	0.2158359439816203	0.005305887805483465	0.6384896261551475	0.6384896255736359	0.1516379097415718	-0.3568169560369501
140.008	-0.06878906086413225	0.1366206981811138	0.1299570658092673	0.9997375575978116	0.9760512515319159	-0.364181999003399	-0.02068731259937742	-0.2447027046852383	-0.1797815048316412	1.341495905907627	1.341495907646548	-0.4791485534694943	-0.5400795132097186	0.446717577182743	0.2240514972117902	0.01195551388536363	0.6614414278830938	0.661441427687511	0.1621102384927432	-0.3613567020367239
140.012	-0.07239413197611216	0.1414810368104402	0.1358892862675448	0.9985195769224597	0.9736928746251846	-0.3642994150847984	0.00507114486145643	-0.2552675841455756	-0.1758084810016877	1.374023620454524	1.374023621788537	-0.4562874713695019	-0.5328183807813973	0.44962921778903	0.2316215115266205	0.01811313634004725	0.6834392402408692	0.6834392403900108	0.1728385644624505	-0.3650905429392065
140.016	-0.07588233430615297	0.1459382254381982	0.1412871053737242	0.9973133865568967	0.9714262466283	-0.3643735410719978	0.0309864755957343	-0.2651454291212369	-0.1711360874818864	1.405497542434192	1.405497543413509	-0.4337807004428065	-0.5254675584053095	0.4518116486071532	0.2383601851659474	0.02364398042089513	0.704196510214556	0.7041965106558519	0.1838895855074546	-0.3678019795024469
140.02	-0.07921874141444217	0.1499111280058995	0.1460455048433519	0.9961225475510119	0.9692738224171554	-0.3643961994649634	0.05706981062624202	-0.2741903496906124	-0.165654751189575	1.435689590007087	1.43568959068511	-0.4117054014904354	-0.5180298273458394	0.4530976932442848	0.2441054434496797	0.02843612770095694	0.7234518908250883	0.7234518914968691	0.1953141039859191	-0.3693153822306112
140.024	-0.082366548146205	0.1533304985483961	0.1500767157266212	0.9949509689018005	0.967257404264157	-0.3643607808901718	0.0833162136310213	-0.282273230176712	-0.1592923756104995	1.464392637100199	1.464392637530455	-0.3901323155377932	-0.5105210811967289	0.4533312635886533	0.2487232640078719	0.03240389152336684	0.7409734711695676	0.7409734720039518	0.207143359862709	-0.3695019314157204
140.028	-0.08528799858099897	0.1561403322081746	0.1533121311296739	0.9938029284282772	0.9653978012418769	-0.3642624020825823	0.1097035035336752	-0.2892845590237435	-0.1520168476512626	1.491422401606413	1.49142240184018	-0.3691255480172051	-0.5029703177250271	0.4523699338482233	0.252111059420548	0.03549004310395341	0.756561840406057	0.7565618413321631	0.2193857679073456	-0.3682833917423651
140.032	-0.08794560711061847	0.1582987477721235	0.1557035440153323	0.9926830712293029	0.963714460942265	-0.3640980035150823	0.1361918826816556	-0.2951368195414802	-0.1438366009582342	1.516618488996355	1.516618489080888	-0.3487426334853705	-0.4954188496628491	0.4500873612752293	0.2541999634463346	0.03766689685565706	0.7700519672310667	0.7700519681782469	0.2320242335640343	-0.3656337728699468
140.036	-0.09030356747615717	0.1597783659996787	0.1572236705837408	0.991596382540701	0.9622250992917174	-0.3638663849980934	0.1627244048356669	-0.2997662877994273	-0.1347992939913237	1.539844685857509	1.539844685834869	-0.3290347547738248	-0.4879188446029101	0.4463754574166285	0.2549559086433494	0.03893631138272282	0.7813139551469876	0.7813139560478921	0.2450142135332783	-0.3615790062628786
140.04	-0.09232932005037314	0.1605661789300425	0.1578659625205635	0.990548132281199	0.9609453434595044	-0.3635681795361305	0.1892283772078688	-0.3031341371246411	-0.1249887508390566	1.560988652399102	1.560988652305513	-0.3100469369322363	-0.4805312327689039	0.4411463302702945	0.2543794410458258	0.03932866108799497	0.7902528102062297	0.7902528109995233	0.2582826759792707	-0.3561947433342271
140.044	-0.09399533829114382	0.1606629268495097	0.1576437468052899	0.9895437889037622	0.959888389270371	-0.3632057669147164	0.2156178640216573	-0.3052268005189396	-0.1145203675208054	1.579961211519757	1.579961211385279	-0.2918179580150036	-0.4733228757400485	0.434334146278219	0.2525042681186524	0.03890081365233554	0.7968074172114907	0.7968074178439459	0.2717281014507198	-0.3496023258266503
140.048	-0.09528109747823439	0.1600820132202477	0.1565887673713319	0.988588904413079	0.9590646824086783	-0.3627831323752562	0.2417972646082124	-0.3060555545473682	-0.103535291325754	1.596695376795737	1.596695376644074	-0.2743798383504387	-0.4663630192112732	0.4258969341070649	0.2493945976213534	0.03773323493918437	0.8009489041445991	0.8009489045723021	0.2852215997762632	-0.3419631145151314
140.052	-0.09617495760646325	0.1588480098490966	0.1547492407830042	0.9876889795058732	0.9584816568251517	-0.3623056819099142	0.26766555291029	-0.3056552890287723	-0.09219382338145697	1.611145127971459	1.611145127819864	-0.2577570933738985	-0.4597194772371841	0.4158180410927976	0.2451414105897223	0.03592650545863672	0.8026784986438255	0.8026784988325246	0.2986090858679893	-0.3334716536185713
140.056	-0.09667563266602486	0.1569948366305441	0.152187554289601	0.9868493210157347	0.9581435687049827	-0.3617800282296766	0.2931206257077331	-0.3040824730855186	-0.08066853241143059	1.623283887492741	1.623283887351965	-0.2419661204110568	-0.4534552079224893	0.4041068667502486	0.2398578882269561	0.03359757578550256	0.8020249440536357	0.8020249439786226	0.3117143378212295	-0.3243482807852255
140.06	-0.09679306892360508	0.1545637199476903	0.148977731780054	0.9860749017303758	0.958051444493666	-0.3612137598229924	0.3180633737165244	-0.3014124045936956	-0.06913749289172072	1.633102701383438	1.633102701257649	-0.2270149947107627	-0.4476257472746425	0.3907986940611042	0.2336742459927664	0.03087598499299463	0.799041572795526	0.7990415724415074	0.3243427276560932	-0.3148316734022806
140.064	-0.09654870633026923	0.1516010312401523	0.1452027869963695	0.9853702288733436	0.9582031399194794	-0.3606152026696222	0.342401274122322	-0.2977358812174128	-0.05777796970237293	1.640608187126123	1.64060818701286	-0.2129037398656906	-0.4422776371333278	0.3759536485393432	0.2267322198821345	0.02790013753088791	0.7938031850920944	0.7938031844532876	0.3362854736202452	-0.3051715904105256
140.068	-0.09597517272571743	0.1481561060296131	0.1409520489163337	0.9847392248636722	0.9585934933680784	-0.3599931777993108	0.3660514115145818	-0.2931554502743737	-0.04676075618591755	1.645820349675667	1.645820349566149	-0.1996249450154069	-0.4374476837757515	0.3596549317839679	0.2191794165058247	0.0248135967453148	0.7864029202290997	0.7864029193094649	0.3473243724192692	-0.2956217878599356
140.072	-0.09511548646646935	0.1442791561469488	0.1363184771296659	0.9841851239393927	0.9592145523199831	-0.3593567491200667	0.3889428985138538	-0.2877814029968686	-0.03624522984595841	1.648770379674735	1.648770379554851	-0.1871645250808801	-0.433162714410465	0.3420065104979816	0.2111637080443724	0.02176122818172377	0.7769492931078661	0.7769492919211862	0.3572370174347103	-0.2864329007599987
140.076	-0.09402181927567438	0.140019390591922	0.1313959521307137	0.9837103899025171	0.9600558582382487	-0.3587149539953284	0.4110186521343154	-0.2817276828240283	-0.02637511978052925	1.649498511089329	1.649498510941418	-0.1755025217268269	-0.4294395775345279	0.3231303780474292	0.2028278532144097	0.01888502841547313	0.765563477895378	0.7655634764649503	0.3658024139137833	-0.2778451815633465
140.08	-0.09275383859666321	0.1354234327447385	0.1262765694702466	0.9833166599102341	0.9611047841192035	-0.3580765169642245	0.4322364276087053	-0.2751078752703696	-0.01727501561809344	1.648051961455387	1.648051961260641	-0.1646139731787582	-0.4262853219428371	0.3031634247701691	0.1943045397177914	0.01631961598050789	0.7523768325272012	0.7523768308851	0.3728067795491309	-0.2700812062721955
140.084	-0.0913766835998993	0.1305340685723356	0.1210480555076989	0.983004715648827	0.9623469167696684	-0.3574495593793768	0.4525690370018903	-0.2680314412559389	-0.009047717006350122	1.644482961572423	1.644482961313495	-0.1544698870487586	-0.4236975783814661	0.282253982277414	0.1857120431262872	0.01418754983055111	0.737528652455488	0.7375286506414358	0.3780492882459457	-0.2633387687710382
140.088	-0.08995871297473411	0.1253893133360777	0.1157914871848958	0.9827744797526067	0.9637664663399516	-0.3568413278280892	0.472003785185069	-0.2606003519010197	-0.001772554294873566	1.638846893810793	1.638846893474122	-0.1450383072572902	-0.4216651883360433	0.2605582094199096	0.1771506872145172	0.0125947931686747	0.7211641729467653	0.7211641710065962	0.3813475173719568	-0.2577842518940821
140.092	-0.08856920159213802	0.1200217762524507	0.1105794780042181	0.9826250348745766	0.9653466814778615	-0.3562579647711689	0.4905412397235122	-0.2529062756478717	0.004495241210160091	1.631200566467752	1.631200566045229	-0.1362854536862313	-0.4201691192730859	0.2382365267200798	0.1687002672590372	0.01162665914945647	0.7034328317746018	0.7034328297583454	0.3825423618996564	-0.2535468172652734
140.096	-0.08727613787286617	0.114458319036822	0.1054749106022646	0.9825546638736079	0.9670702514930446	-0.3557043365911299	0.508193482052974	-0.2450284450930772	0.009724146685223131	1.621600653664364	1.621600653154201	-0.1281768890145945	-0.4191836368362691	0.2154502657394857	0.160418543141369	0.0113444715514326	0.6844867732067347	0.6844867711664826	0.3815022299201072	-0.2507136956704812
140.1	-0.0861442233251424	0.1087200127205832	0.1005302182985012	0.9825609101548793	0.9689196822647395	-0.3551839250618916	0.5249819855859934	-0.2370322856793277	0.0139050603329895	1.610102331661892	1.610102331068692	-0.1206786329362675	-0.4186776237963016	0.1923586344071021	0.1523408393452316	0.01178306408770021	0.6644795499639695	0.6644795479517784	0.3781264041549769	-0.2493267576965333
